<svg xmlns="http://www.w3.org/2000/svg" xmlns:xlink="http://www.w3.org/1999/xlink" viewBox="0 0 1256.95 200.08"><defs><clipPath id="clip-path" transform="translate(-0.72 -0.17)"><rect x="-5.41" y="-4.95" width="154.77" height="185.9" style="fill:none"/></clipPath></defs><g id="Layer_3" data-name="Layer 3"><g style="clip-path:url(#clip-path)"><g style="clip-path:url(#clip-path)"><path d="M109.5,133s-6.26,6.45-6.65,31.86,0,33.41,0,33.41l-37.17-1L67.05,161s.13-19.54-7.14-26,49.59-2,49.59-2" transform="translate(-0.72 -0.17)" style="fill:#96cb3c"/><path d="M109.5,133s-6.26,6.45-6.65,31.86,0,33.41,0,33.41l-37.17-1L67.05,161s.13-19.54-7.14-26S109.5,133,109.5,133Z" transform="translate(-0.72 -0.17)" style="fill:none;stroke:#fff;stroke-miterlimit:10;stroke-width:3.8268507526554654px"/></g><g style="clip-path:url(#clip-path)"><path d="M100.12,140.83s11.53-2.93,12.7-12.51,1.63-15,1.63-16.52-.78-8,0-9.29c.68-1.14,2.76-9.06,2.63-13.64a10.5,10.5,0,0,1,.68-4c1.63-4.37.66-3.71,3.55-7.51a44.67,44.67,0,0,0,8-25.88C129,41,131,36.64,125.21,36.34a.61.61,0,0,1-.58-.67c.7-6.53-.55-14.24-3.75-16.3a3.09,3.09,0,0,0-.79-.34c-3.56-1-5,.15-5.9,1.75S106.12,44.39,103,49.24c-.54.85-1,1.71-1.51,2.6-1.89,3.72-4.64,9.1-5.87,12.37a9,9,0,0,1-3.49,4.44C90.09,70,87.93,70.17,86.31,67c-2.43-4.78-7.82-17-8.17-19.37S77,36.07,76.06,34.24a21.39,21.39,0,0,1-1.46-7.87,23.22,23.22,0,0,0,0-2.36c-.31-5.25-1.56-12.54-2.19-13.48s-.92-5.1-3.51-7.42a4.1,4.1,0,0,0-5.13-.25,11.6,11.6,0,0,0-3.86,5.59,9,9,0,0,0-4.44-2,4.82,4.82,0,0,0-3.58,1.14c-2.59,2.21-4.06,3.28-4.14,11.89-.09,9.38.17,23.62,1.65,32.13S52.87,76,52.18,80.27c-.54,3.29-1.33,10.08-1.91,13.69a10.75,10.75,0,0,1-1.34,3.82c-.83,1.43-2.06,2.78-5.32,2.33a8.52,8.52,0,0,1-3.27-1.18c-6-3.69-11.65-6.79-13.52-8.58s-8.6-4.95-12.77-5.3-7.47,0-8.25.35a5,5,0,0,0-3,5.82,8.17,8.17,0,0,0,3.72,5.1,7,7,0,0,0,1.76.8,20.53,20.53,0,0,1,9.37,6.26c4.43,5.21,6.69,5.21,7.82,7.47s2.91,13.2,12.76,17.64c.23.11.47.22.69.35,10.1,5.61,14.54,8.87,17,11,3,2.09,7.21,5.56,15,3.13a48.62,48.62,0,0,1,17.63-2.35l11.55.2" transform="translate(-0.72 -0.17)" style="fill:#96cb3c"/><path d="M100.12,140.83s11.53-2.93,12.7-12.51,1.63-15,1.63-16.52-.78-8,0-9.29c.68-1.14,2.76-9.06,2.63-13.64a10.5,10.5,0,0,1,.68-4c1.63-4.37.66-3.71,3.55-7.51a44.67,44.67,0,0,0,8-25.88C129,41,131,36.64,125.21,36.34a.61.61,0,0,1-.58-.67c.7-6.53-.55-14.24-3.75-16.3a3.09,3.09,0,0,0-.79-.34c-3.56-1-5,.15-5.9,1.75S106.12,44.39,103,49.24c-.54.85-1,1.71-1.51,2.6-1.89,3.72-4.64,9.1-5.87,12.37a9,9,0,0,1-3.49,4.44C90.09,70,87.93,70.17,86.31,67c-2.43-4.78-7.82-17-8.17-19.37S77,36.07,76.06,34.24a21.39,21.39,0,0,1-1.46-7.87,23.22,23.22,0,0,0,0-2.36c-.31-5.25-1.56-12.54-2.19-13.48s-.92-5.1-3.51-7.42a4.1,4.1,0,0,0-5.13-.25,11.6,11.6,0,0,0-3.86,5.59,9,9,0,0,0-4.44-2,4.82,4.82,0,0,0-3.58,1.14c-2.59,2.21-4.06,3.28-4.14,11.89-.09,9.38.17,23.62,1.65,32.13S52.87,76,52.18,80.27c-.54,3.29-1.33,10.08-1.91,13.69a10.75,10.75,0,0,1-1.34,3.82c-.83,1.43-2.06,2.78-5.32,2.33a8.52,8.52,0,0,1-3.27-1.18c-6-3.69-11.65-6.79-13.52-8.58s-8.6-4.95-12.77-5.3-7.47,0-8.25.35a5,5,0,0,0-3,5.82,8.17,8.17,0,0,0,3.72,5.1,7,7,0,0,0,1.76.8,20.53,20.53,0,0,1,9.37,6.26c4.43,5.21,6.69,5.21,7.82,7.47s2.91,13.2,12.76,17.64c.23.11.47.22.69.35,10.1,5.61,14.54,8.87,17,11,3,2.09,7.21,5.56,15,3.13a48.62,48.62,0,0,1,17.63-2.35Z" transform="translate(-0.72 -0.17)" style="fill:none;stroke:#fff;stroke-miterlimit:10;stroke-width:3.8268507526554654px"/></g><g style="clip-path:url(#clip-path)"><path d="M79.18,137.94A31.43,31.43,0,0,0,81.57,145a.63.63,0,0,0,.87.23.64.64,0,0,0,.23-.87,30.36,30.36,0,0,1-2.26-6.76.64.64,0,1,0-1.23.34" transform="translate(-0.72 -0.17)" style="fill:#96cb3c"/><path d="M90.47,143.85l2.44-.56a.64.64,0,0,0,.44-.78.66.66,0,0,0-.78-.45l-2.44.56a.63.63,0,0,0-.44.78.65.65,0,0,0,.78.45" transform="translate(-0.72 -0.17)" style="fill:#96cb3c"/><path d="M96.43,144a14.18,14.18,0,0,0,3.09-1.15c.46-.24,1-.33,1.43-.59a5.38,5.38,0,0,0,1.14-.87A16,16,0,0,0,104,139.1a7.33,7.33,0,0,0,1.2-2.76.64.64,0,0,0-.44-.78.65.65,0,0,0-.79.44,9,9,0,0,1-2.76,4.48,4.26,4.26,0,0,1-1,.73c-.43.22-.91.32-1.35.53a12.38,12.38,0,0,1-2.78,1c-.8.18-.46,1.41.34,1.23" transform="translate(-0.72 -0.17)" style="fill:#96cb3c"/><path d="M107.19,133a5.76,5.76,0,0,0-1,1.05c-.32.38-.67.75-1,1.11l-2.1,2.27a.65.65,0,0,0,0,.9.64.64,0,0,0,.9,0c.68-.73,1.36-1.47,2-2.2l1-1.06c.15-.17.29-.35.43-.53l.21-.25.12-.13.06-.06a.66.66,0,0,0,.23-.88.64.64,0,0,0-.87-.22" transform="translate(-0.72 -0.17)" style="fill:#96cb3c"/><path d="M104.71,135.44c-.16.25-.33.49-.5.74l-.22.32-.12.16s-.17.21-.06.08c-.17.2-.32.4-.51.59a2.68,2.68,0,0,1-.3.28s-.09.11-.15.13l0,0-.11.07a.66.66,0,0,0-.22.88.64.64,0,0,0,.87.22,10,10,0,0,0,2.39-2.8.65.65,0,0,0-.23-.88.66.66,0,0,0-.87.23" transform="translate(-0.72 -0.17)" style="fill:#96cb3c"/><path d="M102.83,136.73a20.81,20.81,0,0,1-3.33,2.57l.77,1a4.69,4.69,0,0,1,1.43-.84l-.79-.79a3.16,3.16,0,0,1-.38.73c-.41.59.52,1.32,1,.77a5.56,5.56,0,0,1,.86-.82l-.87-.87-.35.49a.63.63,0,0,0,.23.87.65.65,0,0,0,.87-.23,5.06,5.06,0,0,1,.85-.88l-1-.77a5,5,0,0,1-2.58,2c.16.39.33.77.49,1.16a.79.79,0,0,1,.4-.13c-.11-.39-.22-.79-.32-1.19-.53.28-1,.56-1.55.85a.64.64,0,0,0,.32,1.19,1.27,1.27,0,0,1,.39.06v-1.23a3.62,3.62,0,0,1-1,.27c.19.32.37.64.55,1a11.29,11.29,0,0,1,1.35-2,18,18,0,0,0,1.33-2.23l-1.19-.32A2.33,2.33,0,0,1,99.7,139a8.23,8.23,0,0,1-1.22,1.35l1.06.62a11.72,11.72,0,0,0,.55-2.63c.06-.71-1.11-.87-1.26-.17a9,9,0,0,1-1.1,2.83l1.17.49a7.69,7.69,0,0,0,.22-3c-.12-.71-1.26-.53-1.25.17,0,1.13,0,2.25-.1,3.37H99a8.12,8.12,0,0,0-.81-4.15.64.64,0,0,0-1.16.49,15,15,0,0,1,.19,3.67h1.27a10.45,10.45,0,0,0-.79-4.76.65.65,0,0,0-1.17.16,11,11,0,0,0-.15,2.5l0,2.52a.64.64,0,0,0,1.28,0,20.15,20.15,0,0,0-.26-3.88.64.64,0,0,0-1.23,0c-.09.56-.19,1.13-.29,1.69a3.67,3.67,0,0,1-.37,1.48l1.17.15a24.86,24.86,0,0,0-1.23-4.59.64.64,0,0,0-.7-.46.64.64,0,0,0-.55.63c0,1.64,0,3.28,0,4.93h1.27a24,24,0,0,1,.26-4.06H94.47a23.11,23.11,0,0,1,1,4.25.67.67,0,0,0,.64.64.65.65,0,0,0,.64-.64,8,8,0,0,0-.38-3.4.65.65,0,0,0-1.26.17c0,1.13-.06,2.26,0,3.39l1.25-.17-1.14-5c-.18-.8-1.41-.46-1.23.34a25.09,25.09,0,0,1,.58,3.95l1.25-.17a15.86,15.86,0,0,0-2-3.54.64.64,0,0,0-1.19.32,7.34,7.34,0,0,0,.34,2.17c.17.71.34,1.43.52,2.14s1.14.64,1.23,0a14.94,14.94,0,0,0-.35-4.89.65.65,0,0,0-1.26.17c0,.68.07,1.37,0,2,0,.32,0,.64-.07,1a1.46,1.46,0,0,1-.16.69h.91a4.36,4.36,0,0,1-.56-1.31c-.19-.53-.37-1.07-.52-1.61a.64.64,0,0,0-1.23.34c.18.62.38,1.23.6,1.84a5.44,5.44,0,0,0,.8,1.64.65.65,0,0,0,.91,0,3.58,3.58,0,0,0,.58-2.18,21.71,21.71,0,0,0,0-2.42l-1.25.17a13,13,0,0,1,.35,4.21h1.23c-.17-.67-.33-1.35-.49-2a6.53,6.53,0,0,1-.32-1.95l-1.19.32A15,15,0,0,1,94.54,142a.65.65,0,0,0,.7.46.64.64,0,0,0,.55-.63,27,27,0,0,0-.62-4.29l-1.23.34,1.14,5a.64.64,0,0,0,1.25-.17c0-1.13,0-2.26,0-3.39l-1.25.17a7.21,7.21,0,0,1,.33,3.06h1.28a24.64,24.64,0,0,0-1-4.58c-.17-.56-1.1-.66-1.23,0a25.78,25.78,0,0,0-.3,4.39.64.64,0,0,0,1.27,0c0-1.65,0-3.29,0-4.93l-1.26.17a24.86,24.86,0,0,1,1.23,4.59c.12.59.87.56,1.16.15a3.94,3.94,0,0,0,.48-1.66c.1-.6.21-1.21.31-1.81H96.18a18.25,18.25,0,0,1,.21,3.54h1.28c0-.8,0-1.6,0-2.4a10.83,10.83,0,0,1,.11-2.28l-1.16.15a9.11,9.11,0,0,1,.62,4.11.64.64,0,0,0,1.27,0,15.77,15.77,0,0,0-.23-4l-1.17.49a6.87,6.87,0,0,1,.64,3.5A.64.64,0,0,0,99,142c.08-1.12.12-2.24.11-3.37l-1.26.17a6,6,0,0,1-.22,2.34.64.64,0,0,0,1.16.49,10,10,0,0,0,1.23-3.13l-1.25-.17a9.85,9.85,0,0,1-.5,2.29c-.21.64.63,1,1.07.62a9.66,9.66,0,0,0,1.49-1.7,3.18,3.18,0,0,0,.71-2.12.64.64,0,0,0-1.19-.32,16,16,0,0,1-1.32,2.22,11.37,11.37,0,0,0-1.35,2c-.16.39,0,1,.55,1A4.7,4.7,0,0,0,99.6,142a.66.66,0,0,0,.47-.62.64.64,0,0,0-.47-.61,3,3,0,0,0-.73-.11c.11.4.22.79.32,1.19.51-.29,1-.57,1.55-.84a.64.64,0,0,0-.32-1.19,2.1,2.1,0,0,0-1,.3c-.6.36-.22,1.41.49,1.17a6.44,6.44,0,0,0,3.35-2.64.62.62,0,0,0-.17-.82.65.65,0,0,0-.84.05,7,7,0,0,0-1,1.14l1.1.64.35-.49c.37-.5-.37-1.24-.87-.87a6.38,6.38,0,0,0-1.12,1c.33.26.66.52,1,.77a4.3,4.3,0,0,0,.51-1,.63.63,0,0,0-.78-.78,6.45,6.45,0,0,0-2,1.17c-.54.47.18,1.42.78,1a22.9,22.9,0,0,0,3.58-2.76c.57-.6-.33-1.5-.9-.91" transform="translate(-0.72 -0.17)" style="fill:#96cb3c"/><path d="M59.07,139.34a26.36,26.36,0,0,0,2.9,2c1,.62,2,1.25,3.11,1.77a17.92,17.92,0,0,0,3.51,1,13,13,0,0,0,1.74.34c.62.06,1.24.05,1.85.06l4.29.05a.64.64,0,0,0,0-1.28l-3.66,0a15.13,15.13,0,0,1-3.36-.24,24.32,24.32,0,0,1-3.38-.88,21.75,21.75,0,0,1-3-1.62A27,27,0,0,1,60,138.44a.65.65,0,0,0-.9,0,.64.64,0,0,0,0,.9" transform="translate(-0.72 -0.17)" style="fill:#96cb3c"/><path d="M65.54,142.36a40.18,40.18,0,0,0,6.08.91c2,.16,4.07.22,6.09.5a.65.65,0,0,0,.78-.45.64.64,0,0,0-.45-.78c-2.05-.28-4.11-.37-6.17-.52a37.8,37.8,0,0,1-6-.89c-.8-.19-1.14,1-.34,1.23" transform="translate(-0.72 -0.17)" style="fill:#96cb3c"/><path d="M68.88,143.32a18.37,18.37,0,0,0,3.37.63.64.64,0,0,0,.64-.64.67.67,0,0,0-.64-.64l-.43,0-.18,0h-.07l-.79-.14c-.53-.1-1-.22-1.56-.37a.64.64,0,0,0-.78.44.65.65,0,0,0,.44.79" transform="translate(-0.72 -0.17)" style="fill:#96cb3c"/><path d="M81.09,143.19a10.09,10.09,0,0,0-.82-2.45c-.35-.82-.71-1.64-1.07-2.46a.64.64,0,0,0-.72-.29.66.66,0,0,0-.47.61,8.07,8.07,0,0,0,.53,3,7.56,7.56,0,0,1,.32,1.39,8.54,8.54,0,0,0,.26,1.67.64.64,0,0,0,.7.46.63.63,0,0,0,.55-.63,8.38,8.38,0,0,0-1.29-2.82,21,21,0,0,1-1.26-2.83l-1.23.33c.58,1.56,1.15,3.12,1.73,4.67a.64.64,0,0,0,1.23-.33,4.77,4.77,0,0,0-.67-1.31L78,140.94c-.58-.88-1.18-1.75-1.78-2.61a.64.64,0,0,0-1.19.32,4.24,4.24,0,0,0,1,2.25,16.6,16.6,0,0,1,1.24,2l1.1-.64c-.9-1.33-1.84-2.62-2.81-3.9a.67.67,0,0,0-.72-.29.64.64,0,0,0-.47.61,8.58,8.58,0,0,0,1.94,4.25.64.64,0,0,0,1.1-.64,9.88,9.88,0,0,0-2.46-3.13.65.65,0,0,0-.7-.13.62.62,0,0,0-.39.58,6.54,6.54,0,0,0,1.34,2.7c.45.68,1.53.07,1.1-.64a9.35,9.35,0,0,0-2.93-3.07.64.64,0,0,0-.93.72c.43,1.18,1.3,2.16,1.65,3.37l1.17-.49A19.3,19.3,0,0,0,72.8,139a.64.64,0,0,0-1,.77,29.67,29.67,0,0,0,1.79,2.63.64.64,0,0,0,1.1-.64,7.61,7.61,0,0,0-1.09-1.65A3.26,3.26,0,0,0,72,138.93c-.36-.07-.86.18-.81.62a5.91,5.91,0,0,0,1.07,2.82l1-.77A10,10,0,0,0,71.54,140c-.54-.41-1.16.36-.87.87a7.75,7.75,0,0,0,2.25,2.48c.51.36,1.24-.37.87-.88a5,5,0,0,0-2.63-1.94.76.76,0,0,0-.83,1.23,3.46,3.46,0,0,0,1.59.82c.11-.41.22-.82.34-1.23l-2.48-.59c-.12.41-.23.82-.34,1.23l1.29.3a.64.64,0,0,0,.34-1.23c-.39-.11-.79-.21-1.19-.3a3.59,3.59,0,0,0-1.12-.14.8.8,0,0,0-.75.76.78.78,0,0,0,.21.56.86.86,0,0,0,.18.14l.09.08v-.9l0,.06.28-.17-.07,0a.67.67,0,0,0-.45.79.65.65,0,0,0,.79.44.84.84,0,0,1,.54-.05.64.64,0,0,0,.34-1.23,2,2,0,0,0-1.22,0c.11.41.23.82.34,1.23a.88.88,0,0,0,.4-.25.64.64,0,0,0,0-.9,1.2,1.2,0,0,0-.21-.17c-.11-.08-.05-.11,0,0l.09.33v-.06a3,3,0,0,0-.08.32l0,0-.28.16c.07,0,.1,0,.24,0l.54.11c.36.08.72.17,1.07.27.11-.41.23-.82.34-1.23l-1.29-.3c-.8-.19-1.14,1-.34,1.23l2.48.59a.64.64,0,0,0,.34-1.23,3.9,3.9,0,0,1-.57-.21,1.54,1.54,0,0,1-.39-.23l.09.33v-.07l-.19.45,0,0-.28.16.07,0H70.7a3.53,3.53,0,0,1,2,1.4l.88-.88a6.09,6.09,0,0,1-1.8-2l-.88.87a9.23,9.23,0,0,1,1.48,1.45c.45.56,1.42-.18,1-.77a4.64,4.64,0,0,1-.89-2.18l-.81.61c.43.09.83.63,1.1,1a6.85,6.85,0,0,1,.82,1.31l1.1-.64a31.37,31.37,0,0,1-1.79-2.64l-1,.78a18.09,18.09,0,0,1,2.25,2.91c.38.58,1.38.23,1.16-.49-.36-1.22-1.22-2.19-1.65-3.37l-.94.72a8.11,8.11,0,0,1,2.47,2.61l1.1-.64c-.24-.36-.47-.72-.68-1.08a2.71,2.71,0,0,1-.48-1l-1.09.45a9,9,0,0,1,2.26,2.87l1.1-.64a7.66,7.66,0,0,1-1.77-3.61l-1.18.33q1.45,1.91,2.81,3.89a.64.64,0,0,0,1.1-.64,16.08,16.08,0,0,0-1.11-1.82c-.2-.29-.39-.58-.56-.88a1.94,1.94,0,0,1-.36-.91l-1.18.33c.58.82,1.15,1.66,1.71,2.5l.81,1.24a4.1,4.1,0,0,1,.65,1.15l1.23-.33c-.58-1.56-1.15-3.12-1.73-4.67a.65.65,0,0,0-.78-.45.64.64,0,0,0-.45.78A26.23,26.23,0,0,0,77.81,142c.23.44.47.87.73,1.3a3.51,3.51,0,0,1,.56,1.19l1.25-.17a7.72,7.72,0,0,1-.23-1.44,9.63,9.63,0,0,0-.31-1.51,7.32,7.32,0,0,1-.52-2.8l-1.19.32,1,2.35a9.07,9.07,0,0,1,.74,2.26.64.64,0,1,0,1.23-.34" transform="translate(-0.72 -0.17)" style="fill:#96cb3c"/><path d="M93.1,141.2a20.1,20.1,0,0,1-2.87.62,14.26,14.26,0,0,1-2.92-.06,26.73,26.73,0,0,0-2.83-.2,8.87,8.87,0,0,0-1.45.12c-.42.06-.91.3-1.33.14.13.32.26.63.38.94.45-.63,1.69-.23,2.3-.18a19.33,19.33,0,0,0,3.13-.25c1-.09,2,0,3-.06a8.78,8.78,0,0,0,1.54-.21,1.46,1.46,0,0,0,1.2-.83c.16-.43-.25-.76-.62-.81a40.48,40.48,0,0,0-6.13-.3c-2.07.07-4.15.24-6.22.13.18.32.36.64.55,1,0-.07,0-.05,0-.06s.09,0,0,0a1.06,1.06,0,0,0,.18.13c.45.27,1,0,1.45-.09a5,5,0,0,1,2.63.09L85,140.1a7.51,7.51,0,0,1-4.33,1.16l.45,1.09c.59-.7,1.64-.64,2.48-.74,1-.12,2.11-.22,3.18-.28s2.09-.07,3.14-.05a6,6,0,0,0,2.88-.4.64.64,0,0,0,.13-1,3.63,3.63,0,0,0-2.87-.82c-.57.05-1.14.17-1.71.23a17.09,17.09,0,0,1-1.75.09c-1.17,0-2.33-.09-3.49-.08a9.39,9.39,0,0,0-1.67.19,1.57,1.57,0,0,1-1.15,0l.23.23,0,0,.09.32a.88.88,0,0,1,.22-.17.94.94,0,0,1,.5-.11,11.88,11.88,0,0,1,1.45.25,19.94,19.94,0,0,0,3.28.21l6.74,0a.65.65,0,0,0,.45-1.09A6.61,6.61,0,0,0,90.86,138a3.46,3.46,0,0,0-1.49-.3,9.48,9.48,0,0,0-1.47.34,20.39,20.39,0,0,1-5.94.27c-.82,0-.82,1.24,0,1.28a24.16,24.16,0,0,0,5.7-.19c.44-.09.87-.22,1.31-.34a1.82,1.82,0,0,1,1.24.06,6.55,6.55,0,0,1,2.12.85l.45-1.09-5.79,0c-.95,0-1.9,0-2.85,0a11.36,11.36,0,0,1-1.29-.16,12.26,12.26,0,0,0-1.37-.25,2.06,2.06,0,0,0-2,1,.84.84,0,0,0,.23,1.17,2.16,2.16,0,0,0,1.3.25,12.21,12.21,0,0,0,1.21-.2,8.32,8.32,0,0,1,1.41-.06c.94,0,1.87.08,2.81.08a23,23,0,0,0,3.21-.27,2.91,2.91,0,0,1,2.41.39c0-.33.09-.67.13-1a6.18,6.18,0,0,1-2.74.22c-1.09,0-2.18,0-3.27.1s-2.14.19-3.21.31a3.8,3.8,0,0,0-2.72,1,.65.65,0,0,0,.45,1.09,8.87,8.87,0,0,0,5-1.33A.65.65,0,0,0,85.5,140a5.41,5.41,0,0,0-2-.26,7.39,7.39,0,0,0-1,.13L82,140a1.8,1.8,0,0,1-.5.11l.32.09c-.13-.06-.28-.19-.46-.26a1.34,1.34,0,0,0-.63-.05,1.32,1.32,0,0,0-1,.67.64.64,0,0,0,.55,1c2.07.11,4.15-.05,6.22-.13a40.49,40.49,0,0,1,6.13.31l-.61-.81,0,.08.16-.29c-.08.1-.41.15-.55.18s-.41.08-.62.1c-.49,0-1,0-1.46,0a22.13,22.13,0,0,0-3,.17,15.25,15.25,0,0,1-1.53.14,14.53,14.53,0,0,1-1.48-.13,2.57,2.57,0,0,0-2.47.93.64.64,0,0,0,.38.93,2.64,2.64,0,0,0,1.55-.05,6.54,6.54,0,0,1,1.4-.17,25.21,25.21,0,0,1,3,.21,13.5,13.5,0,0,0,3,0,22.57,22.57,0,0,0,3.15-.65.64.64,0,0,0-.34-1.23" transform="translate(-0.72 -0.17)" style="fill:#96cb3c"/></g><g style="clip-path:url(#clip-path)"><path d="M59.91,9s2,8.59,1.35,12.86A19.45,19.45,0,0,0,62.6,32.47,37.24,37.24,0,0,1,64.26,44c0,4.43,4.72,22.34,7.2,26.81" transform="translate(-0.72 -0.17)" style="fill:none;stroke:#fff;stroke-miterlimit:10;stroke-width:3.8268507526554654px"/><path d="M125,36.94s-3.68.19-4.75,8.56-4.07,12.38-4.07,12.38-8.83,17-9.22,18.69" transform="translate(-0.72 -0.17)" style="fill:none;stroke:#fff;stroke-miterlimit:10;stroke-width:3.8268507526554654px"/></g><g style="clip-path:url(#clip-path)"><path d="M47.11,99.12,46.93,99l0,0h0l-.12,0-.07,0h0c-.1,0-.1,0-.13,0s0,0,0,0,0,0,0,0,.06,0,.12,0l.19,0a4.67,4.67,0,0,0,1-.18,10.52,10.52,0,0,0,1.13-.36c.38-.17.77-.31,1.14-.5s.77-.36,1.15-.56.76-.4,1.13-.62c.76-.42,1.5-.88,2.25-1.34-.54.69-1.06,1.4-1.63,2.07-.28.35-.57.68-.87,1s-.59.66-.91,1-.65.64-1,1-.71.62-1.11.91a8.74,8.74,0,0,1-1.36.82l-.44.17-.51.14-.31,0-.35,0a2.8,2.8,0,0,1-.45,0l-.13,0a.56.56,0,0,1-.15,0l-.19-.07-.05,0-.07,0-.22-.13Z" transform="translate(-0.72 -0.17)" style="fill:#fff"/><path d="M64.91,86.54c2.61,1.28,5.19,2.53,7.81,3.66,1.31.56,2.62,1.11,4,1.59a38.92,38.92,0,0,0,4,1.26l1,.24a11.16,11.16,0,0,1,1.13.32,8.7,8.7,0,0,1,1.08.44l1,.49a32.85,32.85,0,0,1,3.8,2.23,24.72,24.72,0,0,1,3.42,2.78,17.67,17.67,0,0,1,1.48,1.64,11.1,11.1,0,0,1,1.2,1.83,21,21,0,0,0-3.25-2.8A38,38,0,0,0,88,98c-1.24-.68-2.5-1.31-3.79-1.9l-1-.43a9.55,9.55,0,0,0-.92-.35c-.32-.1-.63-.18-1-.25l-1.08-.25-.54-.14-.53-.16c-.35-.11-.71-.21-1.06-.33-.69-.26-1.39-.49-2.06-.79a37,37,0,0,1-4-1.9c-1.28-.7-2.52-1.47-3.72-2.28-.61-.41-1.2-.83-1.78-1.27s-1.15-.89-1.69-1.37" transform="translate(-0.72 -0.17)" style="fill:#fff"/><path d="M72.11,104.84a25.64,25.64,0,0,1,5.9,5,27,27,0,0,1,4.29,6.54,22.1,22.1,0,0,1,1.31,3.74,17.73,17.73,0,0,1,.56,3.91,16.36,16.36,0,0,1-1.51,7.62,25.47,25.47,0,0,0,.11-7.49l-.06-.46c0-.15-.06-.3-.08-.45-.07-.31-.11-.61-.18-.91l-.22-.89c-.07-.3-.17-.59-.25-.88l-.13-.45-.16-.43c-.1-.29-.19-.58-.31-.87l-.33-.85-.38-.85a37.9,37.9,0,0,0-3.76-6.4,61.66,61.66,0,0,0-4.8-5.88" transform="translate(-0.72 -0.17)" style="fill:#fff"/></g><g style="clip-path:url(#clip-path)"><path d="M76.23,68.33a8.58,8.58,0,0,1-2,1.9A12.84,12.84,0,0,1,72,71.52a11.83,11.83,0,0,1-2.51.79,7.23,7.23,0,0,1-2.75.08l0-.12c.4-.14.81-.28,1.21-.44l1.2-.46c.79-.32,1.58-.67,2.37-1s1.57-.69,2.35-1l2.34-1.08Z" transform="translate(-0.72 -0.17)" style="fill:#fff"/><path d="M111.13,77.57a7.41,7.41,0,0,1-2.45.2,11.1,11.1,0,0,1-2.29-.4,11,11,0,0,1-2.16-.84,7.78,7.78,0,0,1-2-1.44l0-.12,1.12.28,1.12.3,2.23.6,2.21.64,1.11.31,1.11.34Z" transform="translate(-0.72 -0.17)" style="fill:#fff"/></g></g></g><g id="Layer_1" data-name="Layer 1"><text transform="translate(173.61 126.64)" style="font-size:101.05824279785156px;fill:#f3f3f2;font-family:Montserrat-SemiBold, Montserrat;font-weight:600;letter-spacing:-0.04000149178168711em">FRAMTIDS</text></g><g id="Layer_4" data-name="Layer 4"><text transform="translate(698.61 126.64)" style="font-size:101.05824279785156px;font-family:Montserrat-Black, Montserrat;font-weight:800;letter-spacing:-0.04000149178168711em">PO<tspan x="152.7" y="0" style="letter-spacing:-0.04999340928434794em">R</tspan><tspan x="222.93" y="0" style="letter-spacing:-0.07499252976731074em">T</tspan><tspan x="281.45" y="0">ALEN</tspan></text></g></svg>